<?xml version="1.0" standalone="no"?>
<!DOCTYPE svg PUBLIC "-//W3C//DTD SVG 1.1//EN" "http://www.w3.org/Graphics/SVG/1.1/DTD/svg11.dtd" >
<svg xmlns="http://www.w3.org/2000/svg">
<metadata>Generated by IcoMoon</metadata>
<defs>
<font id="icomoon" horiz-adv-x="1024">
<font-face units-per-em="1024" ascent="960" descent="-64" />
<missing-glyph horiz-adv-x="1024" />
<glyph unicode="&#x20;" horiz-adv-x="512" d="" />
<glyph unicode="&#xe900;" glyph-name="mail" d="M896 800h-768c-70.688 0-128-57.344-128-128v-416c0-70.688 57.312-128 128-128h768c70.688 0 128 57.312 128 128v416c0 70.656-57.312 128-128 128zM64 632l223.968-168-223.968-168v336zM960 256c0-35.328-28.736-64-64-64h-768c-35.296 0-64 28.672-64 64l250.624 188 139.776-104.864c17.056-12.736 37.312-19.2 57.6-19.2 20.256 0 40.512 6.432 57.568 19.2l139.808 104.864 250.624-188zM960 296l-224 168 224 168v-336zM550.368 364.736c-11.168-8.384-24.416-12.8-38.368-12.8s-27.232 4.448-38.4 12.8l-409.6 307.264c0 35.296 28.704 64 64 64h768c35.264 0 64-28.704 64-64l-409.632-307.264z" />
<glyph unicode="&#xe901;" glyph-name="heart" d="M934.176 791.52c-116.128 115.072-301.824 117.472-422.112 9.216-120.32 108.256-305.952 105.856-422.144-9.216-119.712-118.528-119.712-310.688 0-429.28 34.208-33.888 353.696-350.112 353.696-350.112 37.856-37.504 99.072-37.504 136.896 0 0 0 349.824 346.304 353.696 350.112 119.744 118.592 119.744 310.752-0.032 429.28zM888.576 407.424l-353.696-350.112c-12.576-12.512-33.088-12.512-45.6 0l-353.696 350.112c-94.4 93.44-94.4 245.472 0 338.912 91.008 90.080 237.312 93.248 333.088 7.104l43.392-39.040 43.36 39.040c95.808 86.144 242.112 83.008 333.12-7.104 94.4-93.408 94.4-245.44 0.032-338.912zM296.096 719.968c8.864 0 16-7.168 16-16s-7.168-16-16-16h-0.032c-57.408 0-103.968-46.56-103.968-103.968v-0.032c0-8.832-7.168-16-16-16s-16 7.168-16 16v0c0 75.072 60.832 135.904 135.872 135.968 0.064 0 0.064 0.032 0.128 0.032z" />
<glyph unicode="&#xe902;" glyph-name="user" d="M995.52 53.248c-6.432 4.256-123.136 80.8-296.736 118.368 63.68 80.672 104.576 189.184 121.952 261.408 24.128 100.096 14.752 295.936-81.376 417.984-56.192 71.328-134.816 108.992-227.36 108.992s-171.168-37.696-227.328-108.992c-96.128-122.016-105.472-317.856-81.376-417.952 17.376-72.224 58.24-180.736 121.952-261.408-173.6-37.568-290.304-114.112-296.704-118.368-23.456-15.616-33.952-44.8-25.76-71.744 8.128-27.040 33.056-45.536 61.216-45.536h896c28.192 0 53.056 18.496 61.248 45.504 8.224 26.944-2.272 56.128-25.728 71.744zM648.544 211.264l-10.432-13.248c-76.32-87.68-175.84-87.68-252.128 0l-10.464 13.248c-89.12 112.928-133.344 262.304-114.304 404.8 17.44 136.928 95.904 279.936 250.784 279.936s233.376-143.040 250.816-279.968c18.976-142.56-25.088-291.776-114.272-404.768zM64 0c4.416 2.944 112.832 74.048 274.752 109.056l79.488 17.184c28.384-18.624 59.52-30.24 93.76-30.24 34.272 0 65.376 11.616 93.76 30.24l79.488-17.184c160.64-34.752 268.672-105.056 274.752-109.056h-896z" />
<glyph unicode="&#xe903;" glyph-name="keyboard_arrow_right" d="M366 240.667l196 196-196 196 60 60 256-256-256-256z" />
<glyph unicode="&#xe904;" glyph-name="keyboard_arrow_left" d="M658 252.667l-60-60-256 256 256 256 60-60-196-196z" />
<glyph unicode="&#xe905;" glyph-name="cross" d="M810.667 768q18.333 0 30.5-12.167t12.167-30.5q0-18-12.333-30.333l-268.667-268.333 268.667-268.333q12.333-12.333 12.333-30.333 0-18.333-12.167-30.5t-30.5-12.167q-18 0-30.333 12.333l-268.333 268.667-268.333-268.667q-12.333-12.333-30.333-12.333-18.333 0-30.5 12.167t-12.167 30.5q0 18 12.333 30.333l268.667 268.333-268.667 268.333q-12.333 12.333-12.333 30.333 0 18.333 12.167 30.5t30.5 12.167q18 0 30.333-12.333l268.333-268.667 268.333 268.667q12.333 12.333 30.333 12.333z" />
<glyph unicode="&#xe906;" glyph-name="intro" horiz-adv-x="840" d="M89.984 584.022h34.18v0.698l6.975 5.58c16.044 13.253 39.76 24.414 67.662 32.087 26.507 6.975 56.501 11.161 88.589 11.161 27.902 0 53.711-2.79 77.428-8.371 20.229-4.883 39.063-11.161 54.409-18.834 15.346 7.673 33.482 13.951 54.409 18.834 23.717 5.58 50.223 8.371 77.428 8.371 32.087 0 62.779-4.185 88.589-11.161 27.902-7.673 51.619-18.834 67.662-32.087l6.975-5.58v-0.698h53.014v-374.583h-322.965l-5.58 5.58c-2.093 2.093-4.883 4.185-8.371 5.58-2.79 1.395-6.278 2.093-10.463 2.093-3.488 0-6.975-0.698-10.463-2.093s-6.278-3.488-8.371-5.58l-5.58-5.58h-324.36v374.583h18.834zM396.207 927.913v0c-15.346 0-27.204-11.858-27.204-25.809s12.556-25.809 27.204-25.809c14.649 0 27.204 11.858 27.204 25.809s-11.858 25.809-27.204 25.809zM611.052 853.275c-9.068 0-17.439-1.395-25.809-3.488l-66.965 23.717c-25.112 9.068-52.316 2.093-69.755-15.346-3.488-3.488-6.975-7.673-9.068-11.161-0.698-1.395-1.395-2.79-2.093-4.185l32.087-19.531c0.698 1.395 1.395 2.093 2.093 3.488 1.395 2.093 2.79 3.488 4.185 4.883 7.673 7.673 19.531 10.463 30.692 6.975l37.668-13.253c-8.371-9.068-15.346-19.531-19.531-30.692-4.185 2.79-7.673 4.883-11.858 6.975-11.858 5.58-24.414 8.371-36.97 8.371s-25.112-2.79-36.97-8.371c-4.883-2.79-10.463-5.58-15.346-9.068-4.883 12.556-11.858 24.414-21.624 33.482v0c-16.741 16.741-40.458 27.204-66.267 27.204-23.019 0-43.248-8.371-59.989-21.624l-108.12 28.599c-25.809 6.975-52.316-2.093-68.36-20.926-3.488-3.488-6.278-7.673-8.371-12.556-0.698-1.395-2.093-3.488-2.79-5.58l28.599-17.439 4.883-1.395c0.698 2.093 1.395 4.185 2.093 6.278s2.093 3.488 3.488 5.58c6.975 8.371 18.834 12.556 29.995 9.068l92.774-23.717c-5.58-11.858-9.068-25.809-9.068-39.76 0-25.809 10.463-49.526 27.204-66.267v0 0c16.741-16.741 40.458-27.204 66.267-27.204s49.526 10.463 66.267 27.204v0 0c13.253 13.253 22.322 29.995 25.809 48.131l1.395-0.698c6.278 12.556 15.346 20.926 25.809 25.809 6.975 2.79 13.951 4.883 20.926 4.883s13.951-1.395 20.229-4.883c9.068-4.185 17.439-12.556 23.717-23.717 3.488-19.531 12.556-36.97 25.809-50.223v0 0c16.741-16.741 40.458-27.204 66.267-27.204s49.526 10.463 66.267 27.204v0c16.741 16.741 27.204 40.458 27.204 66.267s-10.463 49.526-27.204 66.267v0 0c-16.741 17.439-39.76 27.902-65.569 27.902v0zM650.114 798.866v0c10.463-10.463 16.741-24.414 16.741-39.76s-6.278-29.297-16.741-39.76v0c-9.766-9.766-24.414-16.044-39.76-16.044s-29.297 6.278-39.76 16.044v0c-9.766 9.766-16.044 24.414-16.044 39.76s6.278 29.297 16.741 39.76c10.463 10.463 24.414 16.741 39.76 16.741s29.297-6.278 39.063-16.741v0zM774.278 856.763l-32.087 19.531-34.18-56.501 32.087-19.531 34.18 56.501zM777.766 730.507l-60.687-99.749-32.087 19.531 60.687 99.749 32.087-19.531zM495.956 716.556l-32.087 19.531-18.834-31.39 32.087-19.531 18.834 31.39zM209.264 754.223l-74.638-122.071-32.087 19.531 74.638 122.071 32.087-19.531zM126.256 750.736l-32.087 19.531-25.112-41.155 32.087-19.531 25.112 41.155zM373.886 798.866c9.766-10.463 16.044-24.414 16.044-39.76s-6.278-29.297-16.044-39.76v0c-9.766-9.766-24.414-16.044-39.76-16.044s-29.297 6.278-39.76 16.044v0c-9.766 9.766-16.044 24.414-16.044 39.76s6.278 29.297 16.741 39.76c10.463 10.463 24.414 16.741 39.76 16.741s29.297-6.278 39.063-16.741v0zM598.496 553.33v0c19.531 0 34.877-14.649 34.877-32.785s-15.346-32.785-34.877-32.785c-18.834 0-34.877 14.649-34.877 32.785s15.346 32.785 34.877 32.785zM540.599 556.12h-0.698v-61.384c-9.068 0-17.439-0.698-25.809-1.395-3.488-0.698-4.883-0.698-5.58-0.698-8.371-1.395-16.044-2.79-24.414-4.185v62.082c6.278 0.698 12.556 2.093 19.531 2.79 2.79 0 5.58 0.698 6.278 0.698 10.463 1.395 20.229 2.093 30.692 2.093zM630.583 450.79h-0.698v-34.18l-0.698-2.79c-0.698 0-0.698 0-0.698 0v0c-2.79 0.698-6.278 1.395-9.766 2.093-2.79 0.698-5.58 1.395-10.463 2.093-18.136 3.488-38.365 5.58-59.292 5.58v0c-11.858 0-23.717-0.698-34.877-2.093-3.488-0.698-4.883-0.698-5.58-0.698-8.371-1.395-16.044-2.79-24.414-4.185v38.365c6.278 0.698 12.556 2.093 19.531 2.79 2.79 0 5.58 0.698 6.278 0.698 13.253 1.395 26.507 2.093 39.76 2.093v0c23.717 0 46.038-2.093 66.965-6.278 2.79-0.698 6.975-1.395 11.858-2.79 0.698-0.698 1.395-0.698 2.093-0.698zM630.583 380.338h-0.698v-34.877l-0.698-2.79c-0.698 0-0.698 0-0.698 0v0c-2.79 1.395-6.278 2.093-9.766 2.79-2.79 0.698-5.58 1.395-10.463 2.093-18.136 3.488-38.365 5.58-59.292 5.58v0c-11.858 0-23.717-0.698-34.877-2.093-3.488-0.698-4.883-0.698-5.58-0.698-8.371-1.395-16.044-2.79-24.414-4.185v38.365c6.278 0.698 12.556 2.093 19.531 2.79 2.79 0 5.58 0.698 6.278 0.698 13.253 1.395 26.507 2.093 39.76 2.093v0c23.717 0 46.038-2.093 66.965-6.278 2.79-0.698 6.975-1.395 11.858-2.79 0.698-0.698 1.395-0.698 2.093-0.698zM297.155 415.913v0c10.463 0 20.926-0.698 29.995-2.093 0.698 0 3.488 0 6.278-0.698 6.975-0.698 13.253-1.395 19.531-2.79v-62.082c-7.673 2.093-16.044 3.488-24.414 4.185-0.698 0-2.79 0.698-5.58 0.698-7.673 0.698-16.741 1.395-25.809 1.395v61.384zM207.172 478.692v0c0.698 0.698 1.395 0.698 2.093 0 4.883 1.395 9.068 2.093 11.858 2.79 20.229 4.185 43.248 6.278 66.965 6.278v0c13.253 0 26.507-0.698 39.76-2.093 0.698 0 3.488 0 5.58-1.395 6.975-0.698 13.253-1.395 19.531-2.79v-38.365c-7.673 2.093-16.044 2.79-24.414 4.185-0.698 0-2.79 0.698-5.58 0.698-11.161 1.395-22.322 2.093-34.877 2.093v0c-20.926 0-41.155-2.093-59.292-5.58-4.883-0.698-8.371-1.395-10.463-2.093-3.488-1.395-6.278-2.093-9.766-2.79v0c0 0 0 0-0.698 0l-0.698 2.79v36.272zM207.172 549.144v0c0.698 0 1.395 0 1.395-0.698 4.883 1.395 9.068 2.093 11.858 2.79 20.229 4.185 43.248 6.278 66.965 6.278v0c13.253 0 26.507-0.698 39.76-2.093 0.698 0 3.488 0 6.278-0.698 6.975-0.698 13.253-1.395 19.531-2.79v-38.365c-7.673 2.093-16.044 3.488-24.414 4.185-0.698 0-2.79 0.698-5.58 0.698-11.161 1.395-22.322 2.093-34.877 2.093v0c-20.926 0-41.155-2.093-59.292-5.58-4.883-0.698-8.371-1.395-10.463-2.093-3.488-1.395-6.278-2.093-9.766-2.79v0c0 0 0 0-0.698 0l-0.698 2.79v36.272zM239.259 413.123v0c18.834 0 34.877-13.951 34.877-32.785 0-18.136-15.346-32.785-34.877-32.785s-34.877 14.649-34.877 32.785c0 18.136 15.346 32.785 34.877 32.785zM542.692 73.417l191.826 46.038c-5.58 6.975-12.556 12.556-20.229 16.741-13.951 7.673-30.692 9.766-47.433 6.278l-199.499-47.433c13.253-6.975 25.112-17.439 34.877-30.692l4.185 0.698 36.272 8.371zM420.621 122.943l237.864 55.804c25.809 6.278 51.619 2.093 73.94-9.766 18.136-9.766 32.785-23.717 43.248-42.55l18.136 4.185 8.371-36.97-259.488-59.989-7.673-2.093-11.858-2.79c-13.253-23.717-32.087-40.458-53.014-50.921-15.346-7.673-32.785-11.161-49.526-11.161s-34.18 3.488-49.526 11.161c-21.624 10.463-40.458 27.204-54.409 50.921l-278.322 64.174 8.371 36.97 23.019-5.58c9.766 18.834 25.112 34.18 43.946 43.946 21.624 11.858 47.433 15.346 73.94 9.068l232.981-54.409zM338.311 64.349c9.766 13.951 22.322 24.414 35.575 31.39l-195.313 46.736c-16.741 4.185-33.482 1.395-47.433-6.278-7.673-4.185-14.649-9.766-20.229-16.741l208.567-50.223v-1.395l14.649-3.488h4.185zM477.82 31.564v0c-7.673 15.346-18.834 25.809-30.692 32.087-8.371 4.185-17.439 6.278-26.507 6.278s-18.136-2.093-26.507-6.278c-12.556-5.58-23.717-16.741-31.39-31.39 7.673-7.673 16.044-13.951 25.112-18.136 10.463-4.883 22.322-7.673 33.482-7.673s22.322 2.79 32.785 7.673c8.371 4.185 16.741 9.766 23.717 17.439zM438.757 573.559v-276.926c32.087 12.556 68.36 17.439 106.725 16.741 43.248-0.698 89.286-9.766 131.837-24.414v276.926c-11.858 7.673-27.902 14.649-46.736 19.531-23.019 6.278-50.223 9.766-78.823 9.766-25.112 0-48.828-2.79-69.057-6.975-16.741-4.185-31.39-9.068-43.946-14.649v0zM401.090 295.935v277.624c-11.858 6.278-27.204 11.161-43.248 14.649-20.926 4.883-43.946 6.975-69.057 6.975-29.297 0-55.804-3.488-78.823-9.766-18.834-4.883-34.877-11.858-46.736-19.531v-276.229c38.365 15.346 82.311 23.019 125.559 24.414 39.76 0.698 78.823-4.883 112.305-18.136v0zM124.861 545.657h-15.346v-298.55h15.346v298.55zM159.041 247.106h221.82c4.185 3.488 9.068 6.278 14.649 8.371 0.698 0.698 2.093 0.698 2.79 1.395-29.995 13.951-69.057 20.926-109.515 20.229-45.341-1.395-91.379-11.858-129.744-29.995v0zM441.548 256.174c0.698 0 2.093-0.698 2.79-1.395 4.883-2.093 9.766-4.883 14.649-8.371h220.425c-42.55 17.439-89.984 27.204-134.627 27.902-37.668 2.093-73.94-4.185-103.237-18.136v0zM715.684 247.106h15.346v298.55h-15.346v-298.55z" />
<glyph unicode="&#xe907;" glyph-name="star-o" horiz-adv-x="951" d="M649.714 377.143l174.857 169.714-241.143 35.429-108 218.286-108-218.286-241.143-35.429 174.857-169.714-41.714-240.571 216 113.714 215.429-113.714zM950.857 581.143c0-10.286-7.429-20-14.857-27.429l-207.429-202.286 49.143-285.714c0.571-4 0.571-7.429 0.571-11.429 0-15.429-6.857-28.571-23.429-28.571-8 0-16 2.857-22.857 6.857l-256.571 134.857-256.571-134.857c-7.429-4-14.857-6.857-22.857-6.857-16.571 0-24 13.714-24 28.571 0 4 0.571 7.429 1.143 11.429l49.143 285.714-208 202.286c-6.857 7.429-14.286 17.143-14.286 27.429 0 17.143 17.714 24 32 26.286l286.857 41.714 128.571 260c5.143 10.857 14.857 23.429 28 23.429s22.857-12.571 28-23.429l128.571-260 286.857-41.714c13.714-2.286 32-9.143 32-26.286z" />
<glyph unicode="&#xe908;" glyph-name="star" horiz-adv-x="951" d="M950.857 581.143c0-10.286-7.429-20-14.857-27.429l-207.429-202.286 49.143-285.714c0.571-4 0.571-7.429 0.571-11.429 0-14.857-6.857-28.571-23.429-28.571-8 0-16 2.857-22.857 6.857l-256.571 134.857-256.571-134.857c-7.429-4-14.857-6.857-22.857-6.857-16.571 0-24 13.714-24 28.571 0 4 0.571 7.429 1.143 11.429l49.143 285.714-208 202.286c-6.857 7.429-14.286 17.143-14.286 27.429 0 17.143 17.714 24 32 26.286l286.857 41.714 128.571 260c5.143 10.857 14.857 23.429 28 23.429s22.857-12.571 28-23.429l128.571-260 286.857-41.714c13.714-2.286 32-9.143 32-26.286z" />
<glyph unicode="&#xe909;" glyph-name="check" d="M896 725.334q18.333 0 30.5-12.167t12.167-30.5q0-18-12.333-30.333l-512-512q-12.333-12.333-30.333-12.333t-30.333 12.333l-256 256q-12.333 12.333-12.333 30.333 0 18.333 12.167 30.5t30.5 12.167q18 0 30.333-12.333l225.667-226 481.667 482q12.333 12.333 30.333 12.333z" />
<glyph unicode="&#xe90a;" glyph-name="disciplinas" horiz-adv-x="857" d="M811.615 766.578c0 78.127-62.199 141.843-138.050 141.843h-535.514c-10.619 0-18.963-8.344-18.963-18.204l-1.517-68.267v3.034c-1.517-9.102 9.861-21.239 18.204-25.031 0.759-0.759 27.307-11.378 27.307-39.443 0-28.824-28.824-43.236-30.341-43.236 0 0-13.653-3.793-13.653-31.099v-57.647c0-3.793 0.759-6.827 3.034-9.861-44.753-32.616-76.61-84.196-76.61-137.292v-19.721c0-64.474 42.477-117.57 94.815-144.119-53.855-28.824-94.815-87.23-94.815-147.153v-19.721c0-93.298 88.747-163.081 168.391-163.081h578.75c10.619 0 18.963 8.344 18.963 18.963v63.716c0 20.48-15.17 29.582-15.17 29.582-1.517 0.759-40.201 18.963-40.201 62.199s41.719 61.44 43.236 62.199c8.344 3.793 12.895 12.136 11.378 21.239 0 0 0 0 0 0.759h0.759v67.508c0 0.759 0 1.517 0 2.276s0 1.517 0 1.517v63.716c0 20.48-15.17 29.582-15.17 29.582-1.517 0.759-40.201 18.963-40.201 62.199s41.719 61.44 43.236 62.199c8.344 3.793 12.895 12.136 11.378 21.239 0 0 0 0 0 0.759h0.759v67.508c0 10.619-8.344 18.963-18.963 18.963h-27.307c28.065 25.79 46.27 63.716 46.27 105.434v17.446zM157.013 680.107h153.979v-32.616l-97.090 0.759c-7.585 0-14.412-0.759-21.997-1.517h-35.65v33.375zM191.147 798.436h119.846v-80.403h-122.121c6.827 11.378 12.136 25.031 12.136 41.719 0 15.929-3.793 28.065-9.861 38.684zM379.259 511.716l45.511-26.548c2.276-1.517 5.31-2.276 7.585-2.276s5.31 0.759 7.585 2.276c4.551 3.034 7.585 7.585 7.585 12.895v36.409h291.271c-11.378-15.17-20.48-34.892-20.48-60.681s8.344-45.511 18.963-60.681h-494.554c-3.793 0-84.196 0.759-84.196 60.681 0 58.406 56.889 60.681 63.716 60.681h88.747v-36.409c0-5.31 3.034-10.619 7.585-12.895 4.551-3.034 10.619-2.276 15.17 0l45.511 26.548zM341.333 524.61v273.825h75.852v-273.825l-30.341 18.204c-2.276 1.517-5.31 2.276-7.585 2.276s-5.31-0.759-7.585-2.276l-30.341-18.204zM773.689 261.404h-550.684c-2.276 0-25.79 0-49.304-12.136-33.375-15.929-51.579-47.028-51.579-86.471 0-78.127 79.644-98.607 122.121-98.607h530.204v-37.926h-560.545c-60.681 0-130.465 54.613-130.465 125.156v19.721c0 71.301 71.301 128.948 130.465 128.948l559.787-3.793v-34.892zM738.039 102.116h-494.554c-3.793 0-84.196 0.759-84.196 60.681 0 58.406 56.889 60.681 63.716 60.681h307.959v-89.505c0-5.31 3.034-10.619 8.344-13.653 5.31-2.276 11.378-2.276 15.929 1.517l43.994 31.858 43.994-31.858c2.276-1.517 6.068-3.034 9.102-3.034 2.276 0 4.551 0.759 6.827 1.517 5.31 2.276 8.344 7.585 8.344 13.653v89.505h71.301c-11.378-15.17-20.48-34.892-20.48-60.681 0.759-25.79 9.102-46.27 19.721-60.681zM561.304 163.556v59.923h75.852v-59.923l-28.824 20.48c-2.276 1.517-6.068 3.034-9.102 3.034s-6.068-0.759-9.102-3.034l-28.824-20.48zM773.689 375.182v-37.926h-559.787c-60.681 0-130.465 54.613-130.465 125.156v19.721c0 64.474 58.406 117.57 113.019 126.673h114.536v-36.409h-87.988c-2.276 0-25.79 0-49.304-12.136-33.375-15.929-51.579-47.028-51.579-86.471 0-78.127 79.644-98.607 122.121-98.607h529.446zM773.689 606.53v-34.133h-326.163v36.409h28.065l298.098-2.276zM773.689 749.89c0-56.889-44.753-103.917-100.124-103.917h-226.039v33.375h224.521c18.204 0 65.233 13.653 65.233 78.127 0 56.889-45.511 78.127-76.61 78.127h-504.415l0.759 34.133h516.551c55.372 0 100.124-46.27 100.124-103.917v-15.929zM447.526 718.033v80.403h213.144c9.102 0 38.684-3.793 38.684-40.201s-21.239-40.201-27.307-40.201h-224.521z" />
<glyph unicode="&#xe90b;" glyph-name="heart-f" horiz-adv-x="1136" d="M567.912 839.382c-257.571 226.16-567.912 116.849-567.912-212.339s567.912-691.043 567.912-691.043 567.912 360.599 567.912 691.043-341.752 442.267-567.912 212.339z" />
<glyph unicode="&#xe90c;" glyph-name="no" d="M718.515 907.39l-206.66-206.66-206.66 206.66c-69.759 69.759-183.117 69.759-252.875 0v0c-69.759-69.759-69.759-183.117 0-252.875l206.66-206.66-206.66-206.66c-69.759-69.759-69.759-183.117 0-252.875v0c69.759-69.759 183.117-69.759 252.875 0l206.66 206.66 206.66-206.66c69.759-69.759 183.117-69.759 252.875 0v0c69.759 69.759 69.759 183.117 0 252.875l-206.66 206.66 206.66 206.66c69.759 69.759 69.759 183.117 0 252.875v0c-70.049 70.049-183.117 70.049-252.875 0z" />
<glyph unicode="&#xe90d;" glyph-name="ambientes" horiz-adv-x="1096" d="M1074.988-21.51l-68.833 0.85v596.554c0 11.897-9.348 21.245-21.245 21.245h-152.963v169.959c0 11.897-9.348 21.245-21.245 21.245h-56.086v76.481c0 11.897-9.348 21.245-21.245 21.245h-89.228v52.687c0 11.897-9.348 21.245-21.245 21.245s-21.245-9.348-21.245-21.245v-51.837h-89.228c-11.897 0-21.245-9.348-21.245-21.245v-76.481h-45.039v62.885c0 11.897-9.348 21.245-21.245 21.245h-330.569c-5.949 0-11.047-2.549-15.296-5.949-4.249-4.249-5.949-9.348-5.949-15.296l4.249-865.089-56.086 0.85c0 0 0 0 0 0-11.897 0-21.245-9.348-21.245-21.245s9.348-21.245 21.245-21.245l1053.743-8.498c0 0 0 0 0 0 11.897 0 21.245 9.348 21.245 21.245 0 11.047-9.348 20.395-21.245 20.395zM963.665 554.649v-575.31l-288.080 2.549v572.76h288.080zM630.546-18.111l-282.131 2.549v273.633h282.131v-276.183zM533.67 844.428h177.607v-55.237h-177.607v55.237zM446.141 746.702h343.316v-148.714h-135.117c-11.897 0-21.245-9.348-21.245-21.245v-233.693l-125.769 124.070c-7.648 6.798-19.545 6.798-27.193 0l-33.142-28.893v308.475zM492.88 423.781l124.070-123.22h-270.234l146.164 123.22zM115.572 829.982h288.080v-414.699c0-3.399-0.85-12.747-0.85-12.747l-152.963-127.469c-9.348-7.648-10.198-21.245-2.549-29.743 4.249-5.099 10.198-7.648 16.146-7.648 5.099 0 9.348 1.7 13.597 5.099l28.043 22.944v-281.281l-185.255 1.7-4.249 843.844zM726.573 496.863h42.49v-50.988h-42.49v50.988zM803.054 496.863h42.49v-50.988h-42.49v50.988zM879.535 496.863h42.49v-50.988h-42.49v50.988zM726.573 403.386h42.49v-50.988h-42.49v50.988zM803.054 403.386h42.49v-50.988h-42.49v50.988zM879.535 403.386h42.49v-50.988h-42.49v50.988zM726.573 309.909h42.49v-50.988h-42.49v50.988zM803.054 309.909h42.49v-50.988h-42.49v50.988zM879.535 309.909h42.49v-50.988h-42.49v50.988zM726.573 216.432h42.49v-50.988h-42.49v50.988zM803.054 216.432h42.49v-50.988h-42.49v50.988zM879.535 216.432h42.49v-50.988h-42.49v50.988zM726.573 122.954h42.49v-50.988h-42.49v50.988zM803.054 122.954h42.49v-50.988h-42.49v50.988zM879.535 122.954h42.49v-50.988h-42.49v50.988zM420.647 207.934h42.49v-50.988h-42.49v50.988zM420.647 97.461h42.49v-50.988h-42.49v50.988zM522.622 97.461h42.49v-50.988h-42.49v50.988zM522.622 207.934h42.49v-50.988h-42.49v50.988zM169.959 764.548h178.456v-42.49h-178.456v42.49zM488.631 696.564h259.187v-42.49h-259.187v42.49zM169.959 671.071h178.456v-42.49h-178.456v42.49zM169.959 577.593h178.456v-42.49h-178.456v42.49zM169.959 484.116h178.456v-42.49h-178.456v42.49z" />
<glyph unicode="&#xe90e;" glyph-name="temas-gerais" horiz-adv-x="1206" d="M420.077 124.788c82.039 0 115.645-54.363 116.633-56.34l6.919-12.849h79.073v4.942c0 48.432 116.633 64.247 172.973 64.247h301.467v696.834h-49.421v-647.413h-252.046c-8.896 0-46.456-0.988-86.981-7.907 131.459 96.865 274.78 111.691 274.78 111.691v682.008c-241.174-43.49-336.062-173.961-369.668-239.197-10.873 32.618-27.676 59.305-51.398 79.073-58.317 50.409-134.425 43.49-149.251 41.514h-309.375l4.942-716.602h311.351zM647.413 675.336c10.873 29.653 70.178 164.077 286.641 222.394v-578.224c-63.259-13.838-181.869-49.421-286.641-138.378v494.208zM415.135 791.969h3.954c0.988 0 65.236 9.884 111.691-29.653 31.629-26.687 47.444-72.154 47.444-133.436 0-180.88-3.954-443.799-4.942-523.861h-1.977c-17.792 22.734-65.236 69.189-151.228 69.189h-261.931l-4.942 617.761h261.931zM1156.448 752.432v-677.066h-410.193c-25.699 0-64.247-16.803-64.247-64.247 0-15.815-6.919-21.745-10.873-24.71h-145.297l-2.965-0.988c0 0-3.954 0-5.931 0.988-0.988 0.988-2.965 4.942-2.965 14.826 0 51.398-53.375 74.131-103.784 74.131h-360.772v686.95h-49.421v-736.371h410.193c0.988 0 54.363-1.977 54.363-24.71 0-30.641 11.861-45.467 21.745-53.375 11.861-8.896 24.71-10.873 34.595-10.873 3.954 0 7.907 0 9.884 0.988h150.239l3.954 0.988c16.803 5.931 46.456 27.676 46.456 73.143 0 3.954 0 13.838 14.826 14.826h459.614v725.498h-49.421zM220.417 669.405h256.988v-39.537h-256.988v39.537zM220.417 560.68h256.988v-39.537h-256.988v39.537zM220.417 451.954h256.988v-39.537h-256.988v39.537zM220.417 343.228h256.988v-39.537h-256.988v39.537z" />
<glyph unicode="&#xe90f;" glyph-name="curiosidades" horiz-adv-x="851" d="M478.101 960c-206.033 0-373.324-167.291-373.324-373.324 0-121.506 58.112-229.806 147.921-297.603l-41.383-61.634c-14.968 6.163-32.578 8.805-49.307 6.163-24.653-3.522-45.785-16.729-60.753-36.1l-82.765-114.463c-14.968-19.371-20.251-44.024-16.729-68.678s16.729-45.785 36.1-60.753c15.849-11.446 35.219-18.49 54.59-18.49 4.402 0 9.685 0 14.088 0.88 24.653 3.522 45.785 16.729 60.753 36.1l83.646 113.582c14.968 19.371 20.251 44.024 16.729 68.678-2.641 16.729-9.685 32.578-20.251 45.785l42.263 63.395c55.47-32.578 119.745-51.068 188.423-51.068 206.033 0 373.324 167.291 373.324 373.324s-167.291 374.205-373.324 374.205zM214.837 112.977l-83.646-113.582c-7.924-10.566-18.49-16.729-31.697-19.371-13.207-1.761-25.534 0.88-36.1 8.805s-16.729 18.49-19.371 31.697 0.88 25.534 8.805 36.1l83.646 113.582c7.924 10.566 18.49 16.729 31.697 19.371 2.641 0 5.283 0.88 7.044 0.88 4.402 0 8.805-0.88 13.207-1.761l22.893-14.968c6.163-7.044 9.685-14.968 11.446-24.653 3.522-13.207 0-26.414-7.924-36.1zM478.101 256.495c-181.379 0-329.3 147.921-329.3 329.3 0 182.26 147.921 330.181 329.3 330.181 182.26 0 329.3-147.921 329.3-329.3 0-182.26-147.040-330.181-329.3-330.181zM478.101 876.354c-160.248 0-289.678-130.311-289.678-289.678s130.311-289.678 289.678-289.678 289.678 130.311 289.678 289.678-129.431 289.678-289.678 289.678zM478.101 340.141c-135.594 0-245.654 110.060-245.654 245.654s110.060 245.654 245.654 245.654c135.594 0 245.654-110.060 245.654-245.654 0-134.714-110.060-245.654-245.654-245.654zM449.926 461.647h54.59v-54.59h-54.59v54.59zM554.703 739.88c-8.805 7.924-20.251 14.968-32.578 19.371s-26.414 7.044-42.263 7.044c-16.729 0-32.578-2.641-45.785-8.805-14.088-6.163-25.534-14.088-35.219-24.653s-16.729-22.893-22.012-37.861c-5.283-14.088-7.044-29.936-7.044-46.666h41.383c0 11.446 0.88 22.012 3.522 31.697s7.044 18.49 12.327 25.534c5.283 7.044 13.207 13.207 21.132 16.729 8.805 4.402 18.49 6.163 30.817 6.163 17.61 0 31.697-5.283 42.263-14.968 10.566-10.566 15.849-23.773 17.61-42.263 0.88-12.327-0.88-22.012-4.402-30.817s-8.805-15.849-14.088-22.893c-6.163-7.044-12.327-14.088-19.371-20.251s-14.088-13.207-20.251-21.132c-6.163-7.924-11.446-15.849-15.849-25.534s-7.044-21.132-7.924-35.219v-22.893h41.383v19.371c0 8.805 0.88 15.849 3.522 22.893s5.283 13.207 9.685 18.49c4.402 5.283 8.805 11.446 14.088 15.849 5.283 5.283 10.566 9.685 15.849 14.968s10.566 10.566 15.849 15.849c5.283 5.283 9.685 11.446 13.207 18.49 3.522 6.163 7.044 14.088 9.685 22.012s3.522 16.729 3.522 27.295c0 15.849-2.641 29.936-7.924 41.383-5.283 12.327-12.327 22.012-21.132 30.817zM309.929 591.078h-44.024c0-66.036 31.697-130.311 83.646-172.574l27.295 34.339c-41.383 34.339-66.036 85.407-66.917 138.236z" />
<glyph unicode="&#xe910;" glyph-name="quero-trabalhar-com" horiz-adv-x="1145" d="M575.123 666.36c81.359 0 146.82 65.461 146.82 146.82s-65.461 146.82-146.82 146.82c-81.359 0-146.82-65.461-146.82-146.82s65.461-146.82 146.82-146.82zM575.123 913.242c55.174 0 100.062-44.888 100.062-100.062s-44.888-100.062-100.062-100.062c-55.174 0-100.062 44.888-100.062 100.062s44.888 100.062 100.062 100.062zM788.34 282.009c20.574 23.379 19.638 50.499 18.703 57.98v198.254c0 65.461-47.693 89.775-80.424 89.775h-293.64c-78.553 0-99.127-52.369-99.127-80.424v-208.541c0-22.444 8.416-41.147 23.379-55.174 20.574-18.703 50.499-24.314 71.072-25.249v-322.63h293.64v314.214c28.99 3.741 51.434 14.027 66.396 31.795zM572.318 507.383l28.99-76.683-26.184-37.406-26.184 38.342c7.481 26.184 15.898 54.239 23.379 75.748zM752.804 312.869c-9.352-11.222-28.055-16.833-54.239-16.833h-23.379v-313.279h-76.683v242.206c0 13.092-10.287 23.379-23.379 23.379s-23.379-10.287-23.379-23.379v-242.206h-76.683v324.5l-25.249-1.87c-11.222-0.935-45.823-0.935-60.785 13.092-3.741 2.805-8.416 8.416-8.416 20.574v208.541c0 3.741 1.87 33.666 52.369 33.666h87.905l21.509-22.444c-10.287-22.444-23.379-59.85-41.147-124.376-1.87-6.546-0.935-14.027 3.741-19.638l52.369-74.813c4.676-6.546 11.222-10.287 18.703-10.287s14.963 3.741 18.703 10.287l52.369 74.813c4.676 6.546 5.611 14.027 2.805 21.509l-44.888 119.7 20.574 25.249h101.932c10.287 0 33.666-4.676 33.666-43.017v-202.93c-0.935 0 0.935-12.157-8.416-22.444zM37.406 534.502c0.935-9.352 7.481-16.833 15.898-19.638s17.768 0 24.314 6.546l66.396 70.137 100.997-79.489c4.676-3.741 9.352-4.676 14.027-4.676 6.546 0 14.027 2.805 18.703 9.352 8.416 10.287 6.546 25.249-3.741 32.731l-117.83 92.581c-9.352 7.481-23.379 6.546-31.795-2.805l-46.758-49.563-28.055 226.309 230.049 20.574-37.406-47.693c-3.741-4.676-5.611-11.222-4.676-16.833 0.935-6.546 3.741-12.157 8.416-15.898l84.164-66.396c10.287-8.416 25.249-6.546 32.731 3.741s6.546 25.249-3.741 32.731l-65.461 51.434 57.045 72.007c5.611 7.481 6.546 17.768 1.87 25.249-4.676 8.416-13.092 13.092-22.444 12.157l-308.603-28.055c-6.546-0.935-12.157-3.741-15.898-8.416s-5.611-11.222-4.676-17.768l36.471-298.316zM813.589 680.387l84.164 66.396c4.676 3.741 8.416 9.352 8.416 15.898 0.935 6.546-0.935 12.157-4.676 16.833l-37.406 47.693 230.049-20.574-28.055-226.309-46.758 49.563c-8.416 8.416-22.444 10.287-31.795 2.805l-116.895-93.516c-10.287-8.416-12.157-22.444-3.741-32.731 4.676-5.611 11.222-9.352 18.703-9.352 4.676 0 10.287 1.87 14.027 4.676l100.997 79.489 66.396-70.137c6.546-6.546 15.898-9.352 24.314-6.546s14.963 10.287 15.898 19.638l37.406 299.251c0.935 6.546-0.935 13.092-4.676 17.768s-9.352 8.416-15.898 8.416l-308.603 28.055c-9.352 0.935-18.703-3.741-22.444-12.157-4.676-8.416-3.741-18.703 1.87-25.249l57.045-72.007-66.396-51.434c-10.287-8.416-12.157-22.444-3.741-32.731s22.444-12.157 31.795-3.741zM1106.294 318.48c-0.935 9.352-7.481 16.833-15.898 19.638s-17.768 0-24.314-6.546l-66.396-70.137-100.997 79.489c-10.287 8.416-25.249 6.546-32.731-3.741-8.416-10.287-6.546-25.249 3.741-32.731l117.83-92.581c9.352-7.481 23.379-6.546 31.795 2.805l46.758 49.563 28.055-226.309-230.049-20.574 37.406 47.693c3.741 4.676 5.611 11.222 4.676 16.833-0.935 6.546-3.741 12.157-8.416 15.898l-84.164 66.396c-10.287 8.416-25.249 6.546-32.731-3.741s-6.546-25.249 3.741-32.731l65.461-51.434-57.045-72.007c-5.611-7.481-6.546-17.768-1.87-25.249 3.741-7.481 12.157-12.157 20.574-12.157 0.935 0 1.87 0 1.87 0l308.603 28.055c6.546 0.935 12.157 3.741 15.898 8.416s5.611 11.222 4.676 17.768l-36.471 297.381zM330.111 171.66l-84.164-66.396c-4.676-3.741-8.416-9.352-8.416-15.898-0.935-6.546 0.935-12.157 4.676-16.833l37.406-47.693-230.049 21.509 28.055 226.309 46.758-49.563c8.416-8.416 22.444-10.287 31.795-2.805l117.83 92.581c10.287 8.416 12.157 22.444 3.741 32.731s-22.444 12.157-32.731 3.741l-100.997-79.489-66.396 70.137c-6.546 6.546-15.898 9.352-24.314 6.546s-14.963-10.287-15.898-19.638l-37.406-299.251c-0.935-6.546 0.935-13.092 4.676-17.768s9.352-8.416 15.898-8.416l308.603-28.055c0.935 0 1.87 0 1.87 0 8.416 0 16.833 4.676 20.574 12.157 4.676 8.416 3.741 18.703-1.87 25.249l-57.045 72.007 65.461 51.434c10.287 8.416 12.157 22.444 3.741 32.731s-21.509 13.092-31.795 4.676z" />
<glyph unicode="&#xe911;" glyph-name="i-check" horiz-adv-x="1367" d="M1339.788 814.243l-121.888 120.019c-30.497 34.333-85.784 34.333-121.888 0l-560.155-556.319-264.829 262.96c-36.203 30.497-91.49 30.497-121.888 0l-121.987-121.987c-36.203-34.333-36.203-85.686 0-118.15l331.528-320.117 121.987-121.888c24.791-30.497 81.948-30.497 118.15 0l118.15 121.888 626.756 615.344c32.267 32.563 32.267 85.883-3.935 118.248v0z" />
<glyph unicode="&#xe912;" glyph-name="revolucao" horiz-adv-x="871" d="M868.998 670.609c-4.122 20.612-16.49 38.75-33.804 50.293-12.367 8.245-26.383 12.367-40.399 13.192 8.245 32.979-4.947 69.256-34.628 89.043-18.138 12.367-40.399 16.49-61.836 12.367-2.473 24.734-14.841 47.82-37.101 61.836-25.559 16.49-56.889 17.314-82.448 4.947-5.771 17.314-16.49 32.979-32.979 44.522-37.926 25.559-89.868 14.841-115.427-23.085l-95.639-145.108 1.649-0.824c-10.718-6.596-19.787-15.665-27.208-26.383l-59.362-89.043c-37.101-56.064-75.852-167.369-19.787-260.535 0 0 0 0 0-0.824l-117.9-178.087c-6.596-9.894-3.298-22.261 5.771-28.857 3.298-2.473 7.42-3.298 11.543-3.298 6.596 0 13.192 3.298 17.314 9.069l109.655 166.544c12.367-13.192 28.032-26.383 46.171-37.926 64.309-42.048 121.198-58.538 168.193-61.836l-145.932-220.96c-6.596-9.894-3.298-22.261 5.771-28.857 3.298-2.473 7.42-3.298 11.543-3.298 6.596 0 13.192 3.298 17.314 9.069l151.704 229.205c3.298 4.947 4.122 9.894 3.298 15.665 54.415 5.771 89.868 28.032 98.937 33.804 12.367 5.771 61.836 31.33 109.655 103.884l75.852 114.602c1.649 2.473 2.473 5.771 3.298 9.069 4.947 4.122 9.069 9.069 12.367 14.841l44.522 67.607c9.894 17.314 14.016 37.926 9.894 59.362zM713.997 795.105c8.245 0 15.665-2.473 23.085-6.596 18.963-12.367 24.734-38.75 11.543-57.713l-11.543-18.138c-4.947-4.122-9.069-9.069-12.367-14.841l-44.522-67.607c-1.649-2.473-3.298-5.771-4.947-9.069-5.771-4.947-11.543-8.245-18.963-9.894-10.718-2.473-22.261 0-31.33 5.771-17.314 11.543-23.085 34.628-14.016 52.767h0.824l72.554 112.129c0.824 0.824 0.824 1.649 1.649 2.473 5.771 4.947 12.367 8.245 19.787 9.894 2.473 0.824 4.947 0.824 8.245 0.824zM568.889 831.382c2.473 4.122 4.947 9.069 7.42 13.192l4.122 5.771c5.771 9.069 15.665 15.665 26.383 18.138 2.473 0.824 5.771 0.824 8.245 0.824 8.245 0 15.665-2.473 23.085-6.596 18.138-11.543 23.085-34.628 14.016-53.591-2.473-3.298-5.771-6.596-7.42-9.894l-65.958-99.762c-2.473-4.122-4.947-7.42-6.596-11.543-6.596 8.245-14.016 14.016-19.787 18.138l-46.171 30.506 62.66 94.815zM464.18 899.813c8.245 12.367 21.436 18.963 34.628 18.963 8.245 0 15.665-2.473 23.085-6.596 16.49-10.718 22.261-31.33 16.49-48.644l-67.607-102.235c-20.612 12.367-49.469 26.383-79.15 28.857l72.554 109.655zM686.789 428.213c-46.171-69.256-92.341-89.043-93.166-89.043l-2.473-0.824-2.473-1.649c-4.122-3.298-107.182-77.501-264.657 26.383-153.353 101.411-45.346 269.604-40.399 276.2l59.362 89.043c8.245 12.367 17.314 18.963 30.506 20.612 35.452 5.771 84.921-27.208 100.586-40.399l54.415-36.277c1.649-0.824 30.506-22.261 20.612-48.644-4.947-13.192-14.841-30.506-28.857-35.452s-29.681 4.122-35.452 8.245l-83.272 55.24-60.187-90.692 65.134-122.847c4.947-9.894 18.138-14.016 28.032-8.245 9.894 4.947 14.016 18.138 8.245 28.032l-53.591 101.411 23.91 36.277 49.469-32.155c13.192-9.069 41.224-22.261 70.905-13.192 21.436 6.596 38.75 23.91 51.118 51.118 4.947-5.771 10.718-11.543 17.314-15.665 14.016-9.069 29.681-14.016 45.346-14.016 5.771 0 11.543 0.824 16.49 1.649 1.649 0 2.473 0.824 4.122 0.824 3.298-20.612 15.665-39.575 34.628-52.767 11.543-7.42 24.734-11.543 37.101-12.367l-52.767-80.799zM822.828 633.507l-44.522-67.607c-11.543-17.314-35.452-22.261-52.767-10.718-14.841 9.894-20.612 28.032-14.841 43.697 2.473 2.473 4.947 5.771 6.596 9.069l51.118 77.501c6.596 4.947 14.841 7.42 23.085 7.42 7.42 0 14.841-1.649 21.436-6.596 8.245-5.771 14.016-14.016 16.49-23.91s-0.824-20.612-6.596-28.857zM395.292-42.114l144.308 226.769 34.781-22.133-144.308-226.769-34.781 22.133zM61.743 555.533l164.924 255.646 34.64-22.347-164.924-255.646-34.64 22.347zM0.395 634.576l82.321 123.488 34.302-22.867-82.321-123.488-34.302 22.867zM725.951 304.821l82.321 123.488 34.302-22.867-82.321-123.488-34.302 22.867zM577.543 82.186l65.857 98.791 34.302-22.867-65.857-98.791-34.302 22.867zM58.109 362.482l65.857 98.791 34.302-22.867-65.857-98.791-34.302 22.867zM701.239 82.23l98.785 148.186 34.302-22.867-98.785-148.186-34.302 22.867zM161.597 804.174c0-11.384-9.228-20.612-20.612-20.612s-20.612 9.228-20.612 20.612c0 11.384 9.228 20.612 20.612 20.612s20.612-9.228 20.612-20.612zM713.997 235.285c0-11.384-9.228-20.612-20.612-20.612s-20.612 9.228-20.612 20.612c0 11.384 9.228 20.612 20.612 20.612s20.612-9.228 20.612-20.612z" />
<glyph unicode="&#xe913;" glyph-name="quero-saber-mais" horiz-adv-x="911" d="M498.983 710.075c0 137.98-111.946 249.925-249.058 249.925s-249.925-111.946-249.925-249.925c0-137.98 111.946-249.925 249.925-249.925s249.058 112.814 249.058 249.925zM43.39 710.075c0 113.681 92.854 206.536 206.536 206.536s206.536-92.854 206.536-206.536-92.854-205.668-206.536-205.668-206.536 91.986-206.536 205.668zM269.017 593.79v90.251h90.251c12.149 0 21.695 9.546 21.695 21.695s-9.546 21.695-21.695 21.695h-90.251v90.251c0 12.149-9.546 21.695-21.695 21.695s-21.695-10.414-21.695-21.695v-90.251h-90.251c-12.149 0-21.695-9.546-21.695-21.695s9.546-21.695 21.695-21.695h90.251v-90.251c0-12.149 9.546-21.695 21.695-21.695s21.695 10.414 21.695 21.695zM899.905 439.322l-65.085 162.278c-7.81 159.675-113.681 249.058-128.434 260.339-11.281 12.149-97.193 93.722-262.942 93.722-13.017 0-25.166-0.868-38.183-2.603 18.224-12.149 35.58-26.034 51.2-41.654 147.525-4.339 219.553-79.837 220.42-79.837l2.603-2.603c0.868-0.868 106.739-84.176 112.814-232.569v-3.471l70.292-174.427 1.736-2.603c0.868-1.736 5.207-7.81 4.339-12.149-0.868-2.603-4.339-6.075-10.414-8.678-37.315-19.092-62.481-25.166-62.481-25.166l-16.488-4.339v-139.715c0 0 0.868-16.488-9.546-28.637-9.546-10.414-26.034-15.62-49.464-15.62h-137.98l6.075-175.295-332.366 153.6v132.773l-11.281 6.075c-0.868 0.868-72.027 42.522-108.475 145.79-19.092 7.81-37.315 18.224-53.803 30.373 27.769-124.095 102.4-186.576 130.169-206.536v-137.112l421.749-195.254-6.942 201.329h91.986c36.447 0 63.349 10.414 81.573 30.373 21.695 23.431 20.827 52.936 20.827 59.878v104.136c13.017 4.339 32.108 12.149 55.539 23.431 22.563 11.281 30.373 26.902 32.976 38.183 4.339 20.827-5.207 39.051-10.414 45.993z" />
<glyph unicode="&#xe914;" glyph-name="artes" d="M675.218-64c-8.806 0-17.303 4.807-21.609 13.179l-48.742 94.762h-45.689v-83.655c0-13.407-10.87-24.277-24.277-24.277s-24.277 10.87-24.277 24.277v83.655h-45.689l-48.742-94.762c-6.133-11.92-20.769-16.624-32.692-10.485-11.923 6.133-16.617 20.772-10.485 32.692l37.32 72.551h-3.189c-13.407 0-24.277 10.87-24.277 24.277s10.87 24.277 24.277 24.277h42.272c0.479 0.015 0.962 0.015 1.454 0h83.491c0.352 0.009 0.713 0.009 1.074 0h83.494c0.489 0.012 0.971 0.012 1.454 0h42.272c13.407 0 24.277-10.87 24.277-24.277s-10.87-24.277-24.277-24.277h-3.189l37.317-72.551c6.133-11.923 1.438-26.559-10.485-32.692-3.55-1.827-7.344-2.695-11.082-2.695zM907.69-11.362c-0.886 0-1.778 0.049-2.673 0.146-10.005 1.105-18.287 8.269-20.826 18.010-14.718 56.453-64.916 71.365-123.041 88.632-45.98 13.662-93.53 27.785-126.81 64.573-39.693 43.874-51.254 103.702-30.92 160.036 5.168 14.317 12.114 27.676 20.49 39.775l-546.59 558.938c-9.374 9.586-9.201 24.96 0.382 34.33 9.592 9.377 24.96 9.201 34.33-0.382l545-557.314c20.456 16.32 44.396 27.233 69.632 30.859 33.724 4.831 99.59 0.355 161.462-84.204 44.287-60.528 97.447-230.721 41.143-340.222-4.191-8.151-12.563-13.176-21.579-13.176zM658.716 324.214c-3.766-6.482-7.007-13.392-9.629-20.663-14.345-39.744-6.597-80.195 21.257-110.979v0c24.149-26.695 63.244-38.309 104.63-50.605 45.24-13.44 94.81-28.164 127.205-66.024 13.21 85.618-21.649 194.245-53.236 237.421-35.253 48.18-75.152 70.606-115.379 64.81-15.109-2.17-29.59-8.369-42.421-17.683l78.963-80.748c9.374-9.586 9.201-24.96-0.382-34.33-9.592-9.377-24.96-9.198-34.33 0.382l-76.678 78.417zM542.299 142.644h-332.581c-13.407 0-24.277 10.87-24.277 24.277v519.458c0 13.407 10.87 24.277 24.277 24.277s24.277-10.87 24.277-24.277v-495.181h308.304c13.407 0 24.277-10.87 24.277-24.277s-10.87-24.277-24.277-24.277zM860.089 446.126c-13.407 0-24.277 10.87-24.277 24.277v321.070h-87.205v-127.593c0-13.407-10.87-24.277-24.277-24.277s-24.277 10.87-24.277 24.277v36.573c-3.605-8.897-12.327-15.17-22.511-15.17-13.407 0-24.277 10.87-24.277 24.277v81.913h-313.241c-13.407 0-24.277 10.87-24.277 24.277s10.87 24.277 24.277 24.277h520.064c13.407 0 24.277-10.87 24.277-24.277v-345.347c0-13.407-10.87-24.277-24.277-24.277zM677.542 549.873c-13.407 0-24.277 10.87-24.277 24.277v6.837c0 13.407 10.87 24.277 24.277 24.277s24.277-10.87 24.277-24.277v-6.837c0-13.407-10.87-24.277-24.277-24.277zM662.661 890.18h-255.508c-13.407 0-24.277 10.87-24.277 24.277s10.87 24.277 24.277 24.277h255.508c13.407 0 24.277-10.87 24.277-24.277s-10.87-24.277-24.277-24.277z" />
<glyph unicode="&#xe915;" glyph-name="ciencias-sociais" d="M909.787-64h-795.574c-13.286 0-24.058 10.772-24.058 24.058v530.624c-0.021 2.397 0.313 4.803 1.016 7.133l0.003 0.015c0.006 0.018 0.012 0.036 0.018 0.054 0.003 0.012 0.006 0.024 0.009 0.036 0.006 0.009 0.009 0.021 0.012 0.033 0.006 0.018 0.009 0.036 0.015 0.054 0.003 0.003 0.003 0.009 0.006 0.012 0.006 0.024 0.012 0.045 0.021 0.066v0c0.998 3.188 2.64 6.084 4.776 8.547 2.162 2.496 4.736 4.448 7.545 5.828 2.929 1.446 6.195 2.319 9.65 2.454 0.406 0.015 0.815 0.027 1.215 0.021h108.74l14.11 92.422c1.795 11.749 11.897 20.428 23.782 20.428h501.853c11.885 0 21.989-8.679 23.782-20.425l14.113-92.425h108.749c0.376 0.006 0.785-0.003 1.179-0.018 3.338-0.132 6.502-0.941 9.353-2.304 2.932-1.386 5.618-3.386 7.861-5.978 1.967-2.267 3.516-4.902 4.529-7.792v-0.003c0.009-0.021 0.018-0.045 0.024-0.066h0.003c0.006-0.024 0.015-0.048 0.021-0.066 0.003-0.003 0.003-0.003 0.003-0.003 0.006-0.024 0.015-0.045 0.024-0.066v-0.003c0.009-0.024 0.015-0.045 0.021-0.063 0.003-0.003 0.003-0.006 0.003-0.006 0.009-0.024 0.015-0.045 0.021-0.063 0.003-0.003 0.003-0.006 0.003-0.006 0.009-0.024 0.015-0.042 0.021-0.063 0.003-0.003 0.003-0.009 0.003-0.009 0.009-0.021 0.015-0.042 0.021-0.063l0.003-0.012c0.006-0.021 0.012-0.039 0.021-0.057l0.003-0.015c0.006-0.018 0.012-0.039 0.018-0.057 0.003-0.006 0.003-0.009 0.006-0.015 0.006-0.018 0.012-0.039 0.018-0.057 0 0 0.003-0.012 0.006-0.018 0.003-0.015 0.009-0.033 0.015-0.051 0.003-0.006 0.006-0.015 0.006-0.015 0.006-0.021 0.012-0.039 0.015-0.054 0.003-0.009 0.006-0.021 0.009-0.030 0.006-0.015 0.009-0.027 0.015-0.042 0.003-0.009 0.006-0.021 0.009-0.030 0.003-0.015 0.006-0.027 0.012-0.039 0.003-0.012 0.006-0.027 0.012-0.039 0.003-0.012 0.006-0.021 0.009-0.033 0 0 0.009-0.027 0.012-0.042 0.003-0.009 0.006-0.018 0.009-0.027 0.003-0.018 0.009-0.033 0.015-0.048 0 0 0.003-0.015 0.006-0.024 0.006-0.018 0.009-0.036 0.015-0.054 0.003-0.006 0.003-0.012 0.006-0.015 0.006-0.021 0.012-0.042 0.018-0.063v-0.009c0.647-2.237 0.95-4.544 0.935-6.839v-530.633c-0.009-13.271-10.781-24.043-24.067-24.043zM138.271-15.884h747.457v456.618l-262.709-210.744v-22.669c0-13.286-10.772-24.058-24.058-24.058h-173.914c-13.286 0-24.058 10.772-24.058 24.058v26.987l-262.715 206.987v-457.18zM449.103 231.38h125.797v42.775h-125.797v-42.775zM425.045 322.272h173.914c13.286 0 24.058-10.772 24.058-24.058v-6.538l218.331 175.143h-60.816c-0.265-0.006-0.538-0.006-0.809 0h-535.439c-0.274-0.006-0.544-0.006-0.821 0h-59.839l217.363-171.255v2.649c0 13.283 10.772 24.058 24.058 24.058zM271.854 514.936h480.294l-9.885 64.735h-460.528l-9.882-64.735zM114.213 569.758c-13.286 0-24.058 10.772-24.058 24.058v342.125c0 13.286 10.772 24.058 24.058 24.058h132.6c13.286 0 24.058-10.772 24.058-24.058v-55.201h108.532c13.286 0 24.058-10.772 24.058-24.058v-44.063h108.541c13.286 0 24.058-10.772 24.058-24.058v-92.69c0-13.286-10.772-24.058-24.058-24.058s-24.058 10.772-24.058 24.058v68.629h-84.483v-68.629c0-13.286-10.772-24.058-24.058-24.058s-24.058 10.772-24.058 24.058v136.753h-84.474v-136.753c0-13.286-10.772-24.058-24.058-24.058s-24.058 10.772-24.058 24.058v216.012h-84.483v-318.067c0-13.286-10.772-24.058-24.058-24.058z" />
<glyph unicode="&#xe916;" glyph-name="ciencias-biologicas" d="M1002.588 693.557c-14.767 3.323-29.534-5.907-32.857-20.727-0.211-0.633-4.694-19.145-19.092-44.249l-258.426 258.426c23.891 13.396 41.981 18.143 44.829 18.828 14.662 3.375 23.838 18.037 20.516 32.804-3.323 14.714-18.090 24.049-32.804 20.674-2.795-0.633-272.824-67.191-223.301-459.893-356.311 27.847-491.748-191.446-497.549-201.309-6.593-10.97-4.536-24.735 4.114-33.384 1.529-1.529 3.323-2.953 5.274-4.114 12.974-7.753 29.851-3.534 37.656 9.335 1.477 2.584 13.027 20.832 36.443 44.724l291.23-291.23c-23.891-23.417-42.087-34.861-44.618-36.443-13.027-7.7-17.299-24.524-9.493-37.604 1.16-2.004 2.584-3.797 4.166-5.379 8.702-8.649 22.415-10.706 33.437-4.114 9.862 5.854 229.155 141.238 201.309 497.602 392.702-49.523 459.26 220.559 459.946 223.248 3.217 14.662-6.012 29.482-20.78 32.804zM424.082 77.132l-283.003 282.897c29.534 20.832 66.769 41.454 112.969 57.434l227.468-227.468c-16.033-46.2-36.654-83.435-57.434-112.864zM501.768 268.895l-168.821 168.874c50.419 8.913 108.381 12.13 174.886 6.012 6.118-66.505 2.848-124.519-6.065-174.886zM557.409 493.356c-8.333 58.33-9.23 108.381-4.905 151.68l156.321-156.321c-43.247-4.377-93.244-3.586-151.417 4.641zM791.417 505.328l-222.563 222.563c16.455 52.054 41.559 89.394 67.349 115.923l271.031-270.978c-26.686-25.843-63.974-51-115.817-67.507z" />
<glyph unicode="&#xe917;" glyph-name="engenharias" d="M598.8-63.997h-173.6c-14.674 0-26.572 11.897-26.572 26.572v121.718c-21.898 6.869-43.146 15.73-63.516 26.495l-86.192-86.199c-4.982-4.986-11.741-7.786-18.79-7.786s-13.804 2.8-18.79 7.786l-122.751 122.755c-10.376 10.376-10.376 27.196 0 37.576l86.192 86.192c-10.755 20.364-19.62 41.615-26.499 63.516h-121.712c-14.674 0-26.572 11.897-26.572 26.572v173.603c0 14.674 11.897 26.572 26.572 26.572h121.718c6.875 21.908 15.74 43.156 26.495 63.513l-86.195 86.195c-10.376 10.38-10.376 27.199 0 37.579l122.751 122.755c4.986 4.982 11.741 7.782 18.79 7.782s13.804-2.8 18.79-7.786l86.195-86.195c20.364 10.752 41.615 19.617 63.513 26.489v121.722c0 14.674 11.897 26.572 26.572 26.572h173.6c14.674 0 26.572-11.897 26.572-26.572v-121.722c21.898-6.869 43.149-15.734 63.513-26.489l86.195 86.195c4.986 4.986 11.741 7.786 18.79 7.786s13.804-2.8 18.79-7.782l122.751-122.751c10.376-10.376 10.376-27.199 0-37.576l-86.195-86.202c10.752-20.367 19.617-41.611 26.492-63.51h121.718c14.674 0 26.572-11.897 26.572-26.572v-173.603c0-14.674-11.897-26.572-26.572-26.572h-121.718c-6.875-21.905-15.737-43.149-26.495-63.513l86.195-86.195c10.376-10.38 10.376-27.199 0-37.576l-122.751-122.755c-4.986-4.986-11.741-7.786-18.79-7.786s-13.807 2.8-18.79 7.786l-86.192 86.195c-20.364-10.755-41.608-19.617-63.516-26.492v-121.718c0.003-14.678-11.894-26.575-26.568-26.575zM451.775-10.853h120.456v115.218c0 12.153 8.247 22.762 20.028 25.755 30.72 7.805 60.152 20.085 87.484 36.493 10.449 6.281 23.845 4.633 32.467-3.992l81.661-81.668 85.176 85.179-81.665 81.665c-8.623 8.626-10.27 22.008-3.992 32.464 16.405 27.336 28.691 56.774 36.506 87.494 2.996 11.778 13.601 20.018 25.751 20.018h115.212v120.459h-115.215c-12.153 0-22.759 8.244-25.751 20.022-7.812 30.71-20.092 60.145-36.5 87.491-6.278 10.453-4.63 23.838 3.992 32.457l81.665 81.671-85.176 85.176-81.661-81.665c-8.623-8.626-22.001-10.273-32.464-3.996-27.342 16.408-56.777 28.691-87.487 36.49-11.781 2.993-20.028 13.601-20.028 25.755v115.225h-120.456v-115.222c0-12.153-8.247-22.762-20.028-25.755-30.71-7.802-60.142-20.082-87.487-36.49-10.459-6.281-23.841-4.633-32.464 3.996l-81.668 81.661-85.172-85.176 81.665-81.668c8.623-8.623 10.27-22.008 3.992-32.461-16.401-27.329-28.687-56.764-36.506-87.494-2.996-11.778-13.601-20.018-25.751-20.018h-115.215v-120.459h115.215c12.153 0 22.762-8.244 25.755-20.025 7.805-30.717 20.088-60.148 36.5-87.487 6.281-10.453 4.633-23.845-3.989-32.467l-81.665-81.661 85.176-85.179 81.661 81.668c8.626 8.626 22.011 10.273 32.464 3.996 27.349-16.418 56.787-28.701 87.487-36.496 11.781-2.993 20.028-13.601 20.028-25.755v-115.218zM511.99 227.774c-121.429 0-220.216 98.794-220.216 220.226 0 121.436 98.787 220.23 220.216 220.23 121.439 0 220.233-98.794 220.233-220.23 0-121.429-98.794-220.226-220.233-220.226zM511.99 615.086c-92.124 0-167.073-74.952-167.073-167.086 0-92.127 74.945-167.083 167.073-167.083 92.131 0 167.089 74.952 167.089 167.083s-74.955 167.086-167.089 167.086zM511.997 334.476c-62.596 0-113.524 50.925-113.524 113.524s50.928 113.524 113.524 113.524c62.603 0 113.531-50.925 113.531-113.521 0-62.6-50.928-113.528-113.531-113.528zM511.997 508.381c-33.291 0-60.381-27.083-60.381-60.378s27.087-60.384 60.381-60.384c33.294 0 60.387 27.087 60.387 60.381s-27.090 60.381-60.387 60.381z" />
<glyph unicode="&#xe918;" glyph-name="ciencias-da-saude" d="M1003.438 670.072h-269.366v269.366c0 11.356-9.206 20.562-20.562 20.562h-403.020c-11.356 0-20.562-9.206-20.562-20.562v-269.366h-269.366c-11.356 0-20.562-9.206-20.562-20.562v-403.020c0-11.356 9.206-20.562 20.562-20.562h269.366v-269.366c0-11.356 9.206-20.562 20.562-20.562h403.020c11.356 0 20.562 9.206 20.562 20.562v269.366h269.366c11.356 0 20.562 9.206 20.562 20.562v403.020c0 11.356-9.206 20.562-20.562 20.562zM982.876 267.052h-269.366c-11.356 0-20.562-9.206-20.562-20.562v-269.366h-361.896v269.366c0 11.356-9.206 20.562-20.562 20.562h-269.366v361.896h269.366c11.356 0 20.562 9.206 20.562 20.562v269.366h361.896v-269.366c0-11.356 9.206-20.562 20.562-20.562h269.366v-361.896zM437.976 34.698h-6.168c-11.356 0-20.562-9.206-20.562-20.562s9.206-20.562 20.562-20.562h6.168c11.356 0 20.562 9.206 20.562 20.562 0 11.358-9.206 20.562-20.562 20.562zM655.936 34.698h-152.16c-11.356 0-20.562-9.206-20.562-20.562s9.206-20.562 20.562-20.562h152.16c11.356 0 20.562 9.206 20.562 20.562 0 11.358-9.206 20.562-20.562 20.562z" />
<glyph unicode="&#xe919;" glyph-name="ciencias-exatas" d="M512.016-64c-49.472 0-96.144 19.333-131.426 54.437-9.311 9.264-9.35 24.324-0.083 33.632 9.264 9.314 24.324 9.347 33.632 0.083 26.307-26.173 61.066-40.586 97.874-40.586 76.623 0 138.962 62.336 138.962 138.956v29.866l-138.965 80.23-59.809-34.53c-11.371-6.561-25.921-2.67-32.488 8.708-6.567 11.374-2.67 25.921 8.705 32.488l36.026 20.801-91.39 52.763v-68.493c0-13.134-10.649-23.783-23.783-23.783s-23.783 10.649-23.783 23.783v95.953l-138.959 80.227-25.867-14.93c-31.988-18.471-54.915-48.452-64.554-84.427-9.641-35.975-4.777-73.404 13.693-105.392 12.659-21.928 31.099-39.947 53.328-52.1 11.523-6.3 15.756-20.751 9.457-32.277-6.303-11.523-20.751-15.765-32.277-9.454-29.884 16.342-54.675 40.565-71.697 70.047-24.824 42.991-31.373 93.239-18.447 141.489 12.929 48.247 43.725 88.488 86.716 113.306l2.084 1.204-2.087 1.204c-89.023 51.398-119.665 165.605-68.35 254.653 0.027 0.051 0.056 0.098 0.083 0.146 51.428 89.068 165.721 119.689 254.795 68.273l2.084-1.204v2.405c0 102.847 83.675 186.523 186.526 186.523 46.157 0 90.531-17.154 124.945-48.295 9.739-8.815 10.491-23.852 1.677-33.594-8.812-9.739-23.855-10.488-33.591-1.674-25.653 23.212-58.694 35.996-93.031 35.996-76.623 0-138.959-62.339-138.959-138.959v-29.866l138.959-80.227 74.988 43.291c11.374 6.567 25.924 2.67 32.488-8.705 6.567-11.374 2.67-25.921-8.705-32.488l-51.205-29.565 91.396-52.766v27.588c0 13.134 10.649 23.783 23.783 23.783s23.783-10.649 23.783-23.783v-55.052l138.956-80.227 25.867 14.936c31.988 18.465 54.912 48.449 64.551 84.421s4.774 73.404-13.693 105.392c-12.849 22.258-31.626 40.455-54.3 52.626-11.573 6.213-15.917 20.629-9.707 32.202 6.21 11.579 20.632 15.92 32.205 9.709 30.478-16.36 55.721-40.827 72.997-70.758 24.821-42.988 31.37-93.236 18.444-141.483-12.929-48.247-43.725-88.488-86.714-113.309l-2.084-1.201 2.084-1.204c42.991-24.824 73.787-65.062 86.714-113.309 12.893-48.119 6.413-98.225-18.245-141.138-0.065-0.119-0.131-0.238-0.199-0.354-51.428-89.065-165.727-119.698-254.795-68.27l-2.084 1.201v-2.405c0.003-102.844-83.672-186.517-186.526-186.517zM698.545 179.849l25.867-14.93c66.257-38.261 151.258-15.566 189.647 50.566 0.056 0.101 0.116 0.202 0.172 0.303 18.468 31.988 23.331 69.417 13.693 105.389-9.641 35.975-32.565 65.96-64.554 84.427l-25.867 14.933-138.956-80.227v-160.462zM559.58 260.082l91.399-52.769v105.535l-91.399-52.766zM373.057 367.772l138.956-80.227 138.965 80.23v160.453l-138.962 80.227-138.959-80.227v-160.456zM234.098 447.999l91.393-52.766v105.532l-91.393-52.766zM698.545 500.762v-105.526l91.39 52.763-91.39 52.763zM109.887 680.36c-0.030-0.051-0.056-0.098-0.086-0.149-38.309-66.352-15.492-151.505 50.86-189.817l25.87-14.933 138.959 80.227v160.456l-25.867 14.933c-66.308 38.291-151.386 15.524-189.736-50.718zM373.057 688.681v-105.532l91.393 52.766-91.393 52.766zM295.931 38.357c-42.527 0-77.126 34.599-77.126 77.126s34.599 77.126 77.126 77.126 77.126-34.599 77.126-77.126-34.599-77.126-77.126-77.126zM295.931 145.045c-16.3 0-29.56-13.262-29.56-29.56s13.259-29.56 29.56-29.56c16.297 0 29.56 13.262 29.56 29.56s-13.262 29.56-29.56 29.56zM722.343 696.598c-42.527 0-77.126 34.599-77.126 77.126s34.599 77.126 77.126 77.126c42.53 0 77.132-34.599 77.132-77.126s-34.602-77.126-77.132-77.126zM722.343 803.287c-16.297 0-29.56-13.262-29.56-29.56s13.259-29.56 29.56-29.56c16.3 0 29.565 13.262 29.565 29.56s-13.265 29.56-29.565 29.56z" />
<glyph unicode="&#xe91a;" glyph-name="ciencias-humanas" d="M423.607 24.394c-139.858 0-264.108 68.137-341.294 172.947-1.224 1.326-2.31 2.808-3.215 4.424-49.768 69.437-79.098 154.482-79.098 246.234s29.33 176.8 79.098 246.234c0.905 1.616 1.988 3.098 3.212 4.421 77.187 104.813 201.44 172.95 341.297 172.95 0 0 0 0 0 0 0.003 0-0.003 0 0 0 169.407 0 322.182-100.547 389.212-256.15 5.118-11.881-0.366-25.662-12.244-30.779-11.887-5.115-25.662 0.366-30.776 12.247-8.848 20.538-19.367 39.984-31.371 58.233-46.311-14.466-95.286-25.664-145.772-33.402 8.833-46.905 14.024-97.733 15.212-150.33h33.932c12.935 0 23.422-10.487 23.422-23.422s-10.487-23.422-23.422-23.422h-33.932c-2.287-101.062-19.346-195.593-48.615-268.3-34.237-85.045-82.413-131.883-135.648-131.883zM311.47 234.365c26.912-101.402 71.009-163.127 112.138-163.127 41.135 0 85.241 61.743 112.153 163.18-73.814 7.662-150.532 7.653-224.29-0.053zM139.24 201.1c48.741-56.060 113.757-97.634 187.609-117.273-14.311 19.619-27.386 43.878-38.889 72.45-8.921 22.16-16.711 46.352-23.29 72.133-43.251-6.497-85.329-15.643-125.43-27.31zM47.564 424.577c4.16-67.543 26.203-130.325 61.433-183.668 46.246 14.44 95.148 25.609 145.558 33.341-8.833 46.902-14.024 97.733-15.212 150.33h-191.778zM286.189 424.577c1.224-52.629 6.546-101.115 14.826-144.229 80.621 8.842 164.588 8.848 245.194 0.061 8.274 43.105 13.588 91.55 14.814 144.164h-274.835zM286.189 471.42h274.832c-1.224 52.629-6.546 101.115-14.823 144.229-80.659-8.845-164.524-8.845-245.183 0-8.277-43.111-13.599-91.6-14.826-144.229zM47.564 471.42h191.775c1.192 52.597 6.382 103.428 15.212 150.33-50.41 7.732-99.309 18.901-145.558 33.341-35.229-53.346-57.269-116.125-61.43-183.671zM311.47 661.635c73.802-7.712 150.471-7.709 224.276-0.003-26.909 101.422-71.006 163.13-112.138 163.13-41.129 0-85.226-61.725-112.138-163.127zM520.36 812.179c14.314-19.622 27.389-43.881 38.895-72.458 8.921-22.16 16.709-46.355 23.29-72.136 43.354 6.517 85.525 15.687 125.72 27.392-49.364 56.892-114.849 97.83-187.905 117.203zM139.24 694.9c40.104-11.664 82.178-20.81 125.427-27.31 6.582 25.782 14.369 49.97 23.29 72.133 11.503 28.572 24.581 52.831 38.889 72.45-73.849-19.642-138.865-61.213-187.606-117.273zM612.259 26.022c-1.906 0-3.832 0.234-5.735 0.717-1.909 0.483-3.724 1.197-5.416 2.117-3.663 1.982-6.623 4.837-8.716 8.201-1.593 2.547-2.711 5.428-3.226 8.505-0.448 2.638-0.445 5.378 0.056 8.101 0.325 1.789 0.852 3.507 1.56 5.132l44.671 110.1c20.585 50.714 57.615 118.137 141.19 118.137h59.547c83.578 0 120.608-67.42 141.19-118.134l44.897-110.642c4.863-11.986-0.911-25.647-12.897-30.51-0.117-0.050-0.237-0.094-0.357-0.141-0.006-0.003-0.012-0.006-0.020-0.009-0.012-0.006-0.026-0.012-0.041-0.015-0.015-0.006-0.029-0.012-0.047-0.020-0.006 0-0.009-0.003-0.015-0.006-0.020-0.006-0.041-0.015-0.061-0.023 0 0 0 0 0 0-0.067-0.026-0.135-0.053-0.202-0.073v-0.003c-0.018-0.006-0.038-0.012-0.056-0.020-0.006 0-0.012-0.003-0.020-0.006-0.012-0.006-0.023-0.009-0.035-0.012-0.012-0.006-0.026-0.012-0.041-0.018-0.003 0-0.006 0-0.012-0.003-2.814-1.010-5.715-1.426-8.54-1.37h-387.025c-0.217-0.003-0.433-0.006-0.647-0.006zM647.046 72.874h318.745l-31.816 78.408c-25.29 62.314-54.532 88.903-97.777 88.903h-59.553c-43.246 0-72.491-26.59-97.783-88.906l-31.816-78.405zM806.414 324.39c-56.508 0-102.479 45.974-102.479 102.482s45.971 102.479 102.479 102.479c56.505 0 102.476-45.971 102.476-102.479s-45.968-102.482-102.476-102.482zM806.414 482.508c-30.68 0-55.636-24.956-55.636-55.636s24.956-55.639 55.636-55.639c30.677 0 55.633 24.959 55.633 55.639s-24.956 55.636-55.633 55.636z" />
<glyph unicode="&#xe91b;" glyph-name="ciencias-agrarias" d="M768 383.984c-58.906 0-106.688-47.75-106.688-106.656s47.782-106.656 106.688-106.656 106.688 47.75 106.688 106.656-47.782 106.656-106.688 106.656zM768 213.328c-35.312 0-64 28.718-64 64s28.688 64 64 64 64-28.718 64-64-28.688-64-64-64zM948.188 459.172l-46.812 372.812h15.938c11.812 0 21.376 9.562 21.376 21.344s-9.562 21.344-21.376 21.344h-469.314c-11.782 0-21.328-9.562-21.328-21.344s9.546-21.344 21.328-21.344h29.422l-93.046-299.562c0 0-3.188 0.062-9 0.062-18.828 0-65.156-0.626-119.376-6.062v49.188h42.672v171.062h-42.672v42.656h-0.218c0 35.344-28.656 64-64 64-11.782 0-21.344-9.562-21.344-21.344s9.562-21.312 21.344-21.312c11.766 0 21.328-9.594 21.328-21.344h0.218v-42.656h-42.656v-171.062h42.656v-54.312c-88.64-12.658-184.328-39.438-213.328-95.97v-212c0-106.032 85.968-192 192-192 98.828 0 180.204 74.656 190.812 170.656h143.75c35.188-99.406 129.968-170.656 241.438-170.656 141.376 0 256 114.626 256 256 0 71.126-29 135.468-75.812 181.844zM213.328 703.984h42.672v-85.718h-42.672v85.718zM339.782 191.672c-3.578-24.782-13.296-48.062-28.376-68.062-8.376 7.376-21.156 7.094-29.172-0.906-7.984-8-8.296-20.718-0.954-29.126-20-14.968-43.282-24.594-68.032-28.094-0.766 11.094-9.968 19.844-21.25 19.844s-20.484-8.75-21.25-19.844c-24.75 3.5-48.032 13.126-68.032 28.094 7.344 8.406 7.032 21.126-0.954 29.126-8.016 8-20.796 8.282-29.172 0.906-15.078 20-24.796 43.282-28.376 68.062 11.234 0.594 20.156 9.876 20.172 21.282 0 11.406-8.984 20.718-20.266 21.25 3.454 24.876 13.078 48.282 28.126 68.376 8.376-7.718 21.39-7.532 29.516 0.594 8.14 8.156 8.296 21.218 0.546 29.562 20.078 15.156 43.484 24.876 68.39 28.406 0.39-11.438 9.766-20.594 21.296-20.594s20.906 9.156 21.296 20.594c24.906-3.532 48.312-13.25 68.39-28.406-7.75-8.344-7.594-21.406 0.546-29.562 8.126-8.126 21.14-8.312 29.516-0.594 15.046-20.094 24.672-43.468 28.126-68.344-11.282-0.562-20.266-9.876-20.266-21.282s8.944-20.688 20.18-21.282zM515.562 234.672h-132.75c-10.61 96-91.984 170.656-190.812 170.656-60.062 0-113.656-27.594-148.876-70.75l-0.39 78.688c20.25 26.156 74.672 48.438 152.062 61.906 78.234 13.594 158 14.656 180.578 14.656 5.234 0 8.172-0.062 8.188-0.062l32.062-0.594 106.468 342.812h336.282l42.126-335.562c-14.376 8.718-29.688 16.032-45.75 21.812l-34.032 271.094h-267.218l-106-341.344h129.688c-40.532-45.28-65.188-105.094-65.188-170.656 0-14.532 1.234-28.782 3.562-42.656zM810.312 529.828c-13.782 2.282-27.906 3.5-42.312 3.5-52.344 0-101-15.718-141.532-42.656h-121.032l79.5 256h198.126l27.25-216.844zM962.562 189.578c-10.062 5.218-22.562 1.656-28.282-8.25s-2.594-22.468 6.938-28.594c-6.688-9.25-14.156-18.032-22.376-26.25-8.218-8.25-17.032-15.688-26.282-22.376-6.126 9.5-18.656 12.656-28.562 6.938-9.938-5.718-13.5-18.218-8.25-28.282-20.876-9.438-43.282-15.438-66.468-17.718-0.532 11.282-9.844 20.282-21.282 20.282s-20.75-9-21.282-20.282c-23.188 2.282-45.594 8.282-66.468 17.718 5.218 10.062 1.688 22.562-8.25 28.282-9.906 5.718-22.468 2.562-28.562-6.938-9.25 6.688-18.062 14.126-26.312 22.376-8.188 8.218-15.656 17-22.344 26.25 9.532 6.126 12.656 18.688 6.938 28.594s-18.218 13.468-28.282 8.25c-9.436 20.876-15.436 43.282-17.748 66.468 11.312 0.532 20.312 9.844 20.312 21.282s-9 20.718-20.312 21.282c2.312 23.188 8.312 45.562 17.75 66.468 10.062-5.218 22.562-1.688 28.282 8.25 5.718 9.906 2.594 22.468-6.938 28.594 6.656 9.25 14.156 18.032 22.344 26.25 8.25 8.218 17.032 15.688 26.282 22.376 6.126-9.532 18.688-12.656 28.594-6.938 9.938 5.718 13.468 18.218 8.25 28.282 20.876 9.438 43.282 15.438 66.468 17.718 0.532-11.282 9.844-20.282 21.282-20.282s20.75 9 21.282 20.282c23.188-2.282 45.594-8.282 66.468-17.718-5.25-10.062-1.688-22.562 8.25-28.282 9.906-5.718 22.468-2.594 28.562 6.938 9.25-6.688 18.062-14.156 26.282-22.376s15.688-17 22.376-26.25c-9.532-6.126-12.656-18.688-6.938-28.594 5.718-9.938 18.218-13.468 28.282-8.25 9.438-20.906 15.438-43.282 17.75-66.468-11.316-0.564-20.316-9.844-20.316-21.282s9-20.75 20.312-21.282c-2.312-23.186-8.312-45.592-17.75-66.468zM192 277.328c-35.344 0-64-28.656-64-64s28.656-64 64-64 64 28.656 64 64-28.656 64-64 64zM192 191.984c-11.766 0-21.328 9.562-21.328 21.344 0 11.75 9.562 21.344 21.328 21.344s21.328-9.594 21.328-21.344c0-11.782-9.562-21.344-21.328-21.344z" />
<glyph unicode="&#xe91c;" glyph-name="arrow-left" horiz-adv-x="914" d="M877.714 438.857v-73.143c0-38.857-25.714-73.143-66.857-73.143h-402.286l167.429-168c13.714-13.143 21.714-32 21.714-51.429s-8-38.286-21.714-51.429l-42.857-43.429c-13.143-13.143-32-21.143-51.429-21.143s-38.286 8-52 21.143l-372 372.571c-13.143 13.143-21.143 32-21.143 51.429s8 38.286 21.143 52l372 371.429c13.714 13.714 32.571 21.714 52 21.714s37.714-8 51.429-21.714l42.857-42.286c13.714-13.714 21.714-32.571 21.714-52s-8-38.286-21.714-52l-167.429-167.429h402.286c41.143 0 66.857-34.286 66.857-73.143z" />
<glyph unicode="&#xe91d;" glyph-name="keyboard_arrow_down" d="M316 604.667l196-196 196 196 60-60-256-256-256 256z" />
<glyph unicode="&#xe91e;" glyph-name="keyboard_arrow_up" d="M316 280.667l-60 60 256 256 256-256-60-60-196 196z" />
<glyph unicode="&#xea90;" glyph-name="facebook" d="M608 768h160v192h-160c-123.514 0-224-100.486-224-224v-96h-128v-192h128v-512h192v512h160l32 192h-192v96c0 17.346 14.654 32 32 32z" />
<glyph unicode="&#xea96;" glyph-name="twitter" d="M1024 733.6c-37.6-16.8-78.2-28-120.6-33 43.4 26 76.6 67.2 92.4 116.2-40.6-24-85.6-41.6-133.4-51-38.4 40.8-93 66.2-153.4 66.2-116 0-210-94-210-210 0-16.4 1.8-32.4 5.4-47.8-174.6 8.8-329.4 92.4-433 219.6-18-31-28.4-67.2-28.4-105.6 0-72.8 37-137.2 93.4-174.8-34.4 1-66.8 10.6-95.2 26.2 0-0.8 0-1.8 0-2.6 0-101.8 72.4-186.8 168.6-206-17.6-4.8-36.2-7.4-55.4-7.4-13.6 0-26.6 1.4-39.6 3.8 26.8-83.4 104.4-144.2 196.2-146-72-56.4-162.4-90-261-90-17 0-33.6 1-50.2 3 93.2-59.8 203.6-94.4 322.2-94.4 386.4 0 597.8 320.2 597.8 597.8 0 9.2-0.2 18.2-0.6 27.2 41 29.4 76.6 66.4 104.8 108.6z" />
</font>
</defs>
</svg>
